<svg id="Layer_1" data-name="Layer 1" xmlns="http://www.w3.org/2000/svg" viewBox="0 0 1349.62 410.55"><defs><style>.cls-1,.cls-4{font-size:185px;}.cls-1,.cls-4,.cls-8{fill:#403d39;}.cls-1{font-family:Nunito-Black, Nunito;font-weight:800;}.cls-2{letter-spacing:-0.07em;}.cls-3{letter-spacing:0.04em;}.cls-4{font-family:Nunito-Regular, Nunito;}.cls-5{letter-spacing:-0.01em;}.cls-6{letter-spacing:-0.01em;}.cls-7{fill:#ccc6b9;}.cls-9{fill:#b7ae9b;}</style></defs><text class="cls-1" transform="translate(343.69 236.09)"><tspan class="cls-2">W</tspan><tspan x="196.29" y="0">ood</tspan><tspan class="cls-3" x="533.72" y="0">W</tspan><tspan x="750.54" y="0">ise</tspan></text><text class="cls-4" transform="translate(368.72 389.2)"><tspan class="cls-5">F</tspan><tspan x="99.35" y="0">urnitu</tspan><tspan class="cls-6" x="585.89" y="0">r</tspan><tspan x="651" y="0">e</tspan></text><path class="cls-7" d="M175.32,292.81c-44,.84-47,10.1-74.75,5.6-11.82-1.92-42.83-7.1-64.89-33.15-19.29-22.78-31.17-60.89-16.62-85.84,12.62-21.66,36.23-20.88,38-37.56,1.72-16-20-20.08-29.44-47.25C26.39,91,16.78,61.74,33.78,36.45,49.68,12.79,77.55,9.5,82.92,8.86S112.27,6,132.49,20.36c18.75,13.32,16.65,28.41,36.22,36.69,2.81,1.19,15.78,6.68,29.63,2.56,13-3.87,14.84-11.45,28.65-19.89,3.1-1.89,17.19-8.34,33.28-6.42C291.2,37,306.61,70,307.33,71.59c9.55,21.28,6.31,44.42-2.45,60.58-11.13,20.51-24.05,16.66-30.67,32.71-11.56,28.05,24.15,49,16,83.6-6.72,28.34-37.27,42.42-39.74,43.52C229.17,301.43,220.36,291.94,175.32,292.81Z"/><path class="cls-8" d="M175.62,290.82a228.27,228.27,0,0,0-32.09,2.72c-3.69.6-7.36,1.31-11,2l-2.26.43-1.22.23-.49.09-.17,0c-1.51.26-3,.5-4.53.7a69.36,69.36,0,0,1-20.13-.28,137.41,137.41,0,0,1-18.6-3.85c-19.75-5.56-37.66-16.49-50.07-33a101.22,101.22,0,0,1-14.85-28.33c-3.38-10-5.31-20.67-4.48-31.23.78-10.05,4.22-19.77,11-27.35,5.91-6.61,13.7-10.59,21.08-15.27,6.16-3.92,11.82-9.11,12.28-16.87.41-6.8-3.53-12.08-8-16.74-5.89-6.13-12-11.92-16.42-19.27A60.7,60.7,0,0,1,28.42,86a72.07,72.07,0,0,1-.79-26.71A56.14,56.14,0,0,1,43,28.89a61,61,0,0,1,22.66-14.1c-.42.15.07,0,.13,0l.73-.25,1.3-.43c.92-.3,1.84-.58,2.77-.84,1.54-.43,3.1-.82,4.66-1.16.67-.15,1.33-.29,2-.42l.93-.17c-.92.17.23,0,.45-.07.95-.16,1.9-.29,2.85-.42a75.12,75.12,0,0,1,17-.3,65.25,65.25,0,0,1,30.91,10.69A53.09,53.09,0,0,1,141.7,33.13c2.81,3.71,5.16,7.72,7.84,11.52a40.76,40.76,0,0,0,9.88,10.16,44.87,44.87,0,0,0,11.05,5.43c10.91,3.79,23.27,4.09,33.89-.85,4.47-2.09,8.16-5.2,11.77-8.51,1.84-1.69,3.68-3.39,5.64-5,1.13-.91,2.28-1.78,3.47-2.61.65-.46,1.31-.91,2-1.34l1.18-.75c.2-.12,1.14-.63.19-.13a53.29,53.29,0,0,1,25.9-6.15,47.81,47.81,0,0,1,26.65,9.15,71.23,71.23,0,0,1,16.2,16.49q2.48,3.42,4.6,7.06.78,1.33,1.5,2.7c.11.21.62,1.21.32.61l.4.81c9.57,19.91,7.73,45.49-4.3,64a40.46,40.46,0,0,1-9.91,10.51c-3.16,2.34-6.6,4.28-9.67,6.75A30.5,30.5,0,0,0,269,175.29c-.37,8,2.38,15.61,5.69,22.77,3.61,7.8,7.85,15.32,10.67,23.46,3.06,8.83,4,18,1.88,27.22s-7.09,17.16-13.39,23.91a80.84,80.84,0,0,1-17.37,13.9l-.88.53-.38.22c-.61.37.38-.21,0,0l-1.63.91c-.87.47-1.74.92-2.62,1.36a52.64,52.64,0,0,1-5.41,2.31l-.48.17c-.41.14-.81.27-1.22.39-.75.23-1.5.44-2.26.64s-1.4.33-2.1.47l-.57.11c.09,0,.65-.11.1,0l-1.14.18c-1.43.19-2.87.31-4.32.37l-1.14,0H232c-.78,0-1.56,0-2.34-.05-7.08-.3-14.1-1.42-21.14-2.11a284.69,284.69,0,0,0-32.91-1.24c-1.2,0-3.06.91-3.22,2.25s1.58,1.74,2.63,1.72a272.9,272.9,0,0,1,33.46,1.44c6.9.72,13.81,1.83,20.75,1.95a51.44,51.44,0,0,0,19.44-3.38,72.35,72.35,0,0,0,11.87-6c14.79-9,28-22.58,32.34-39.77a49.89,49.89,0,0,0-1.41-28c-2.74-8.31-7-16-10.73-23.85-3.3-7.06-6.34-14.72-5.89-22.65a29.08,29.08,0,0,1,3.52-12.31,24.82,24.82,0,0,1,7.82-8.37c3.33-2.35,6.84-4.42,10-7.06a48.46,48.46,0,0,0,10.67-12.87,70.73,70.73,0,0,0,9.22-34.2,66,66,0,0,0-6.25-29.73,80.46,80.46,0,0,0-7.7-12.57C291.3,42.72,275.49,31.53,256.81,31a62.13,62.13,0,0,0-30,6.57A64.29,64.29,0,0,0,213.91,47c-3.32,3-6.49,6.26-10.44,8.42-9.5,5.2-21,4.36-30.85.65a37.18,37.18,0,0,1-11.2-6.41,48.3,48.3,0,0,1-8.56-10.48,102.93,102.93,0,0,0-8.71-12,57.06,57.06,0,0,0-14.5-11.64,73.17,73.17,0,0,0-31.42-9,85.54,85.54,0,0,0-36,5.44A67.82,67.82,0,0,0,38.05,27.53a59.94,59.94,0,0,0-16,31c-3,15.78-.46,33.29,7.48,47.33,4.34,7.66,10.45,13.72,16.55,20,4.39,4.49,8.75,9.43,8.14,16-.69,7.56-6.55,11.26-12.56,14.89-8.08,4.88-16.12,9.76-21.94,17.39C6.4,191.58,8,215.28,15,234.93c7.57,21,21.6,39.43,41,50.85,14.06,8.28,29.91,12.73,46,15a79.06,79.06,0,0,0,21.51.21c3.27-.44,6.51-1.06,9.75-1.68l5-1,1.27-.23.72-.13c-.5.09,0,0,.09,0,1-.17,2-.35,3.06-.51A227.69,227.69,0,0,1,175,294.79c1.19,0,3.06-.91,3.22-2.24S176.67,290.8,175.62,290.82Z"/><path class="cls-9" d="M247.65,285.43q-6-1.44-12.08-2.6c-2.08-.4-4.17-.81-6.27-1.17-.92-.16-2-.21-2.94-.4-31.33-2.84-63.19-.35-94.45,2.47-15.37,1.38-30.53,1.86-45.94,2-5.81.05-11.56.34-17.33.77,14,6.69,27.16,8.88,33.89,10,27.07,4.39,30-4.65,72.95-5.47,44-.84,52.53,8.42,73.28-.79a65.1,65.1,0,0,0,5.81-3C252.27,286.57,250,286,247.65,285.43Z"/><path class="cls-8" d="M172.42,258.81a147.48,147.48,0,0,1-41.15-19.25,157.82,157.82,0,0,1-34-30.82,155,155,0,0,1-15-21.8c-.85-1.49-6.33.62-5.79,1.56a159.7,159.7,0,0,0,29,36.86,154.89,154.89,0,0,0,38.06,26.45,148,148,0,0,0,24.13,9.32,6.28,6.28,0,0,0,4.06-.71c.55-.28,1.95-1.25.68-1.61Z"/><path class="cls-8" d="M171.73,191A99,99,0,0,1,100.27,84.65c.32-2.88-5.58-2.05-5.86.48a102.18,102.18,0,0,0,74,109.69,4.13,4.13,0,0,0,4.1-1.1,1.59,1.59,0,0,0-.73-2.71Z"/><path class="cls-8" d="M173.59,181.1a89.16,89.16,0,0,0,38.15-25.3,85.31,85.31,0,0,0,19.7-71.28c-.2-1.08-6,.22-5.8,1.55a85.1,85.1,0,0,1-5.12,47.68,83.48,83.48,0,0,1-27.57,35,79,79,0,0,1-21.32,11.17c-.48.16-2.37.81-1.76,1.55s3.15-.18,3.72-.38Z"/><path class="cls-8" d="M171.59,384.24c.15-84.82-1.29-170.43-.52-255"/><path class="cls-8" d="M180.28,381.91c.06-33.24-.12-66.48-.32-99.72-.2-33.09-.41-66.19-.42-99.28q0-28,.23-56c0-1.21-2.57-1.7-3.21-1.79a16.77,16.77,0,0,0-6.42.63c-2.71.78-7.73,2.33-7.76,5.82-.3,33.18-.26,66.37-.12,99.55s.4,66.22.54,99.33q.12,28.07.09,56.13c0,1.21,2.56,1.7,3.21,1.79a16.77,16.77,0,0,0,6.42-.62c2.69-.78,7.75-2.34,7.76-5.82Z"/><path class="cls-8" d="M99.57,113.13A51.65,51.65,0,0,1,70.74,87.32a50.17,50.17,0,0,1-3.82-10.7c-.36-1.53-6.17-.07-5.79,1.56a53,53,0,0,0,23.3,32.38,52.44,52.44,0,0,0,10.43,5,5.65,5.65,0,0,0,4.07-.67c.63-.33,1.9-1.33.64-1.78Z"/><path class="cls-8" d="M97.24,216.51A46.29,46.29,0,0,1,58.7,231.9a4.2,4.2,0,0,0-3.81,1.66c-.69,1.24.6,1.92,1.66,2A55.19,55.19,0,0,0,102,217.79a1.34,1.34,0,0,0-.64-2.37,4.49,4.49,0,0,0-4.1,1.09Z"/><path class="cls-8" d="M78.78,230.73A35.61,35.61,0,0,1,70.32,262c-.8.84-.72,1.75.54,2a5,5,0,0,0,4.09-1.1,38.06,38.06,0,0,0,9.63-33.74c-.42-1.95-6.24-.51-5.8,1.56Z"/><path class="cls-8" d="M171.3,238.05A93.17,93.17,0,0,0,230,212.45a88.76,88.76,0,0,0,11.8-13.94c.82-1.2-.71-2.15-1.72-2.26a4.1,4.1,0,0,0-3.79,1.73,85,85,0,0,1-47.71,33.46,80.58,80.58,0,0,1-16.65,2.63c-1.21.06-3,.87-3.22,2.24s1.59,1.79,2.64,1.74Z"/><ellipse class="cls-9" cx="193.98" cy="109.49" rx="7.9" ry="15.2"/><ellipse class="cls-9" cx="134.37" cy="93.56" rx="9.65" ry="23.88"/><ellipse class="cls-9" cx="91.96" cy="154" rx="5.26" ry="13.41"/><ellipse class="cls-9" cx="143.1" cy="205.03" rx="4.96" ry="12.12"/><ellipse class="cls-9" cx="220.62" cy="179.16" rx="4.23" ry="11.76"/><ellipse class="cls-9" cx="237.89" cy="253.56" rx="6.43" ry="13.41"/><ellipse class="cls-9" cx="113.71" cy="267.54" rx="5.69" ry="10.82"/><ellipse class="cls-9" cx="52.32" cy="203.65" rx="5.3" ry="15.93"/><ellipse class="cls-9" cx="256.81" cy="109.49" rx="5.69" ry="10.82"/><path class="cls-8" d="M79.12,385.23A58,58,0,0,0,108,374.91,71.41,71.41,0,0,0,124.9,357a132.05,132.05,0,0,0,11.38-20.56c4-8.86,7.72-17.88,11.14-27a458.91,458.91,0,0,0,17.1-56.31,471,471,0,0,0,9.85-58.53,459.52,459.52,0,0,0,2.37-58.89q-.09-3.67-.24-7.37c-.05-1.12-2.56-1.41-3.12-1.46a18.66,18.66,0,0,0-6.39.76,18.38,18.38,0,0,0-5.91,2.54c-1,.71-2,1.49-2,2.82a458.64,458.64,0,0,1-.86,52q-.54,7.35-1.32,14.68l.09-.89a462.72,462.72,0,0,1-17.89,87.38q-6.56,21.3-15.18,41.91c-2.56,6.1-5.18,12.18-8.18,18.08-1.34,2.63-2.76,5.23-4.28,7.77q-1.14,1.91-2.35,3.76-.49.78-1,1.53c-.2.31-.42.61-.62.91s-.28.4,0-.06l-.43.59a74,74,0,0,1-6.2,7.49c-1.12,1.19-2.3,2.33-3.52,3.42-.26.23-.52.46-.79.68-1.26,1.08.7-.52-.13.12-.54.42-1.08.85-1.64,1.25s-1.29.92-2,1.35c-.28.18-.57.37-.86.54-1.57,1,1.27-.68.18-.09-.69.38-1.38.75-2.08,1.09l-.92.42c-1.29.61,2.1-.84.76-.33-.73.28-1.47.55-2.2.81,3.42-1.23.57-.2-.32,0-.74.18-2.12.32,1-.21l-1.35.25c-.35.05-.69.09-1,.15,2.9-.5,1.13-.13.42-.07a25,25,0,0,0-6.78,1.49c-1.47.55-3.76,1.5-4.82,2.78-.61.74-1.31,1.8-.25,2.58s3.13.85,4.48.74Z"/><path class="cls-8" d="M162.57,134.1q-.12,28.85,1.74,57.67,1.81,28.18,5.56,56.2c2.45,18.33,5.31,36.68,9.33,54.73,3.79,17,9.16,33.79,18.18,48.82,7.83,13.05,18.68,24.69,32.05,32.15,1.63.92,3.31,1.76,5,2.54a12.8,12.8,0,0,0,12.39-1.34c1.32-1,3-2.38,3.17-4.15a3.61,3.61,0,0,0-1.94-3.73,72,72,0,0,1-15.69-9.85l1.2,1A95.44,95.44,0,0,1,210.44,339l.68,1.29c-10.3-19.63-14.81-41.6-18.63-63.25q-6.19-35.07-9.32-70.6-1.77-20.05-2.55-40.19l.06,1.45q-.68-17.67-.61-35.36a3.8,3.8,0,0,0-1.94-3.74,9.79,9.79,0,0,0-5.83-1,14.14,14.14,0,0,0-6.56,2.31c-1.25.92-3.16,2.43-3.17,4.15Z"/><path class="cls-8" d="M118.32,382.08A313.08,313.08,0,0,0,144,336a305.52,305.52,0,0,0,17.18-48.68q3.68-14.14,6-28.61c.58-3.63-5.08-3.52-7.36-3.16a18.07,18.07,0,0,0-6.59,2.19c-1.2.73-3.13,1.86-3.37,3.39A305.43,305.43,0,0,1,127,337.64q-4.59,10.23-9.91,20.12l.63-1.17q-7.11,13.17-15.47,25.58c-.7,1.05-1,2.22-.07,3.24s3.3,1.28,4.62,1.25a18.25,18.25,0,0,0,6.8-1.4c1.66-.72,3.67-1.63,4.72-3.18Z"/><path class="cls-8" d="M154,259.31a214.93,214.93,0,0,1-8.33,50.28l.48-1.71c-5.6,19.83-13.27,39-21.41,57.89q-3.48,8.1-7,16.17a5.06,5.06,0,0,0,.4,5,7.37,7.37,0,0,0,5,2.61c4.13.43,9.49-1.28,11.3-5.4,6.89-15.67,13.76-31.38,19.71-47.44a305.72,305.72,0,0,0,14.35-50,194.29,194.29,0,0,0,3.21-28.56c.15-4.28-4.32-6.34-8.11-6a12,12,0,0,0-6.53,2.41c-1.4,1.18-2.94,2.81-3,4.76Z"/><path class="cls-8" d="M120.56,389.07c4.83,1.78,10.9.54,15.54-1.27,3.62-1.42,7.34-3.46,9.67-6.67,3.62-5,4.83-11.23,6.55-17.05l11-37.45,6.26-21.24c.95-3.24-5.56-2.52-7.11-2.25a22,22,0,0,0-6.62,2.11c-1.18.65-3.07,1.56-3.49,3q-8.75,29.7-17.51,59.41c-1.46,4.94-2.49,10.45-5.31,14.83l.67-1a14.14,14.14,0,0,1-1.48,1.87c-1,1-.11-.1.06,0-.2.16-.4.3-.61.44,1-.59,1.32-.75.82-.48-1.53.74,1.21-.46,1.59-.58.91-.27,1.06-.32.44-.15a10.49,10.49,0,0,1,2.35-.45,7.45,7.45,0,0,1,1.89-.06c-.5-.05-.48,0,.05.06s.54.11,0,0a6.2,6.2,0,0,1-.69-.23c-1.6-.59-4-.31-5.59-.06a21.48,21.48,0,0,0-6.61,2.12c-1.86,1-5.69,3.77-2,5.15Z"/><path class="cls-8" d="M154.54,304.14a116.74,116.74,0,0,1-.72,32.81l.13-.77a117.57,117.57,0,0,1-16.61,43.67c-.65,1,.73,1.59,1.41,1.76a14,14,0,0,0,5.51-.2,26.42,26.42,0,0,0,6.63-2.05,8.39,8.39,0,0,0,3.58-2.62,119,119,0,0,0,18.23-59.55,115.16,115.16,0,0,0-.77-17.71c-.12-1-2.54-1.13-3-1.15a21,21,0,0,0-6.35.89,20.76,20.76,0,0,0-5.94,2.4c-.83.56-2.2,1.33-2.06,2.52Z"/><path class="cls-8" d="M155.51,380.66l20.24-54.85,5.71-15.46c.49-1.35-.76-2.64-1.79-3.18a10.45,10.45,0,0,0-5.74-.64c-3.68.53-8.45,2.12-9.87,6l-20.24,54.84-5.7,15.47c-.5,1.35.75,2.64,1.79,3.18a10.52,10.52,0,0,0,5.74.64c3.68-.53,8.45-2.12,9.86-6Z"/><path class="cls-8" d="M163.63,319.41q-.94,11.73-3,23.31l.14-.74a238.29,238.29,0,0,1-11.91,42.51c-1.06,2.77,5.84,1.62,6.89,1.42a27.71,27.71,0,0,0,6.63-2.05c1.13-.54,3.12-1.3,3.6-2.55a240.23,240.23,0,0,0,13.4-51.6c.72-5,1.27-9.95,1.68-14.95.08-1-2.8-1.07-3-1.07a22.25,22.25,0,0,0-6.34.92,21.78,21.78,0,0,0-5.95,2.37c-.94.61-2,1.21-2.08,2.43Z"/><path class="cls-8" d="M165.65,386c6.2-8.19,7.67-19.05,9.72-28.83q3.42-16.38,6.85-32.76l3.91-18.69L168.7,309l6.18,54.86,1.76,15.64c.17,1.51,2.31,2.51,3.49,2.83a12.73,12.73,0,0,0,6.54-.19c3.3-1,7.82-3.22,7.36-7.3L187.85,320l-1.76-15.64c-.17-1.47-2.32-2.55-3.49-2.83a12.58,12.58,0,0,0-5.36,0c-3.22.6-7.82,2.46-8.58,6.11l-12,57.51a87.06,87.06,0,0,1-3.68,13.7l.56-1.42a32.61,32.61,0,0,1-4.22,7.65,3.45,3.45,0,0,0,.15,4.07c1.05,1.27,3.25,1.83,4.79,1.89a13.46,13.46,0,0,0,11.42-5Z"/><path class="cls-8" d="M196.57,378q-1.48-25.23-3.86-50.41c-.09-1-2.56-1.15-3-1.17a21.32,21.32,0,0,0-6.35.88,20.69,20.69,0,0,0-5.94,2.42c-.93.62-2,1.28-2,2.52a53.87,53.87,0,0,0,30.54,49.1,56.74,56.74,0,0,0,16.69,5,22.25,22.25,0,0,0,11.14-1.84c.86-.35,6.59-3,4.21-4.43a103.07,103.07,0,0,1-27.51-23.65l.49.61a103.76,103.76,0,0,1-10-14.75c-.58-1-2-1.11-3-1.16a21.23,21.23,0,0,0-6.35.88,20.73,20.73,0,0,0-6,2.41c-.58.39-2.57,1.59-2,2.53a104.73,104.73,0,0,0,27.91,32.24,100.9,100.9,0,0,0,10.09,6.77l15.35-6.27a52.63,52.63,0,0,1-9.53-2.17l-1.13-.38-.57-.21c.42.16.4.14-.07,0-.74-.3-1.48-.6-2.21-.92q-2.19-1-4.29-2.15a52.83,52.83,0,0,1-15-12.49l.49.61a53.34,53.34,0,0,1-11.87-34.34l-17.38,4.65q2.35,25.19,3.86,50.42c.06,1,2.6,1.15,3,1.17a21,21,0,0,0,6.35-.89,20.67,20.67,0,0,0,5.94-2.41c.88-.59,2.12-1.31,2-2.53Z"/><path class="cls-8" d="M181.39,352.67c8.75,15.38,23.42,26.9,40,32.91a78.5,78.5,0,0,0,15.49,3.76,13.48,13.48,0,0,0,6.85-1.25c1.59-.74,3.76-2.17,4.53-3.86.64-1.4.91-3.09-.23-4.37a7.59,7.59,0,0,0-4.85-2.14c-.68-.09-3.81-.73-1-.12l-2.21-.46c-1.6-.36-3.18-.78-4.74-1.25s-3.11-1-4.64-1.59l-2.1-.84-.69-.3,1,.42c-.41-.16-.81-.37-1.21-.55a72.39,72.39,0,0,1-16.27-10.52l1.22,1.05a69.72,69.72,0,0,1-15.06-18.23c-.8-1.4-3.48-2-4.86-2.14a13.66,13.66,0,0,0-6.84,1.26c-1.71.85-3.7,2-4.53,3.85a4.24,4.24,0,0,0,.23,4.37Z"/><path class="cls-8" d="M184.78,354.52l-51.9,18.88a12.9,12.9,0,0,0-4.82,2.79c-.63.7-1.26,1.84-.25,2.57,1.19.88,3.12.85,4.48.75a25.48,25.48,0,0,0,6.78-1.49L191,359.13a12.71,12.71,0,0,0,4.82-2.79c.63-.7,1.26-1.83.25-2.57-1.19-.87-3.12-.84-4.48-.74a25,25,0,0,0-6.78,1.49Z"/><path class="cls-8" d="M123,356.34q-2.32,2.18-4.76,4.25l-.66.55c1-.83,1.19-1,.56-.47-.44.36-.88.72-1.33,1.07-.78.62-1.56,1.22-2.36,1.82a124,124,0,0,1-10.4,7c-.91.55-1.83,1.09-2.76,1.61l-.74.42c1.25-.7,1.59-.88,1-.56l-1.31.71q-2.82,1.5-5.71,2.85c-1.93.9-3.89,1.75-5.86,2.55-.92.37-1.85.74-2.78,1.09l-1.6.58c3-1.14.94-.33.25-.1a13.65,13.65,0,0,0-5.74,3.17c-1,1-2.09,2.84-1.56,4.34,1.29,3.7,7,3.9,10.08,2.85a137.73,137.73,0,0,0,49.94-29.74,4,4,0,0,0-2-7.33,13.63,13.63,0,0,0-12.3,3.3Z"/><path class="cls-8" d="M104.61,369.15,93,389.37c-.61,1.07.69,1.68,1.44,1.89a13.38,13.38,0,0,0,5.53-.13,25.17,25.17,0,0,0,6.63-2.07,7.85,7.85,0,0,0,3.55-2.71l11.59-20.23c.61-1.06-.7-1.67-1.44-1.88a13.43,13.43,0,0,0-5.54.13,24.39,24.39,0,0,0-6.62,2.07,7.93,7.93,0,0,0-3.56,2.71Z"/><path class="cls-8" d="M113.16,371.28,110,386.57a3.2,3.2,0,0,0,1.85,3.4,10.25,10.25,0,0,0,5.78.78,15.35,15.35,0,0,0,6.57-2.27c1.37-1,2.88-2.16,3.24-3.89l3.18-15.3a3.21,3.21,0,0,0-1.85-3.4,10.16,10.16,0,0,0-5.78-.77,15.22,15.22,0,0,0-6.57,2.27c-1.37.95-2.88,2.15-3.24,3.89Z"/><path class="cls-8" d="M121,374.58v16.35c0,1,2.7,1.07,3,1.08a21.9,21.9,0,0,0,6.34-.91,21.36,21.36,0,0,0,5.95-2.38c.89-.58,2.08-1.25,2.08-2.45V369.93c0-1-2.7-1.08-3-1.09a22,22,0,0,0-6.35.91,21.49,21.49,0,0,0-6,2.38c-.89.58-2.07,1.25-2.07,2.45Z"/><path class="cls-8" d="M135,371.56l2,17.37c.18,1.66,2.31,3,3.67,3.53a11.32,11.32,0,0,0,6.62.1,11.11,11.11,0,0,0,5.68-3.39l1-1.57a4.75,4.75,0,0,0,.38-3.33l-2-17.37c-.18-1.67-2.31-3-3.67-3.54a11.32,11.32,0,0,0-6.62-.1,11.13,11.13,0,0,0-5.68,3.4l-1,1.57a4.74,4.74,0,0,0-.38,3.33Z"/><path class="cls-8" d="M145.65,380.69l1,5.1a3.73,3.73,0,0,0,1.38,2.17,4.87,4.87,0,0,0,2.33,1.49,7.66,7.66,0,0,0,3.14.52,9.22,9.22,0,0,0,3.49-.37l2.25-.84a10.26,10.26,0,0,0,3.41-2.61l1-1.6a5.05,5.05,0,0,0,.36-3.42l-1-5.1a3.79,3.79,0,0,0-1.39-2.17,4.84,4.84,0,0,0-2.32-1.49,7.86,7.86,0,0,0-3.14-.52,9.19,9.19,0,0,0-3.49.37l-2.25.84a10.4,10.4,0,0,0-3.42,2.61l-1,1.6a5,5,0,0,0-.36,3.42Z"/><path class="cls-8" d="M161.26,377.47l3.88,9.28c.45,1.07,2.15,1.18,3.06,1.23a13.9,13.9,0,0,0,3-.19,19.94,19.94,0,0,0,3.41-.66,20.4,20.4,0,0,0,5.93-2.44l1.22-.92a1.86,1.86,0,0,0,.82-1.68l-3.88-9.28c-.45-1.06-2.15-1.18-3.06-1.23a13.9,13.9,0,0,0-3,.19,19,19,0,0,0-3.41.67,19.76,19.76,0,0,0-5.93,2.44l-1.22.91a1.87,1.87,0,0,0-.82,1.68Z"/><path class="cls-8" d="M172.07,379.69l2.05,5.11a2.89,2.89,0,0,0,1.28,1.81,4.34,4.34,0,0,0,2.25,1.2,8.5,8.5,0,0,0,3.09.33,10.52,10.52,0,0,0,3.47-.45l2.26-.8a11.4,11.4,0,0,0,3.48-2.38l1.07-1.42a3.92,3.92,0,0,0,.48-2.95l-2-5.11a2.9,2.9,0,0,0-1.29-1.81,4.3,4.3,0,0,0-2.25-1.2,8.47,8.47,0,0,0-3.08-.33,10.45,10.45,0,0,0-3.47.45l-2.26.8a11.4,11.4,0,0,0-3.48,2.38l-1.08,1.42a3.92,3.92,0,0,0-.48,2.95Z"/><path class="cls-8" d="M184.55,375.53l3,9.21c.48,1.49,2,2.22,3.41,2.57a9.54,9.54,0,0,0,3.06.2,11.91,11.91,0,0,0,3.45-.51,13.17,13.17,0,0,0,5.79-3c1-1,2.17-2.41,1.67-3.93l-3-9.2c-.48-1.49-2-2.22-3.41-2.57a9.22,9.22,0,0,0-3.05-.2,11.93,11.93,0,0,0-3.46.51,13.17,13.17,0,0,0-5.79,3c-1,1-2.17,2.41-1.67,3.92Z"/><path class="cls-8" d="M194.25,377.13l4,10.23a3.16,3.16,0,0,0,1.32,1.91,4.37,4.37,0,0,0,2.27,1.28,8.17,8.17,0,0,0,3.1.39,10,10,0,0,0,3.48-.43,11.65,11.65,0,0,0,5.71-3.25c1-1.17,2.15-2.95,1.51-4.56l-4.05-10.23a3.11,3.11,0,0,0-1.31-1.91,4.5,4.5,0,0,0-2.27-1.29,8.39,8.39,0,0,0-3.1-.38,10,10,0,0,0-3.48.43,11.73,11.73,0,0,0-5.72,3.25c-1,1.17-2.14,2.95-1.5,4.56Z"/><path class="cls-8" d="M205,381.58l4.14,6.09a1.46,1.46,0,0,0,1.06.94,4.1,4.1,0,0,0,2,.47,13.33,13.33,0,0,0,3-.14,18.92,18.92,0,0,0,3.42-.64l2.28-.73a17.5,17.5,0,0,0,3.63-1.79l1.2-1a2,2,0,0,0,.79-1.81l-4.14-6.09a1.44,1.44,0,0,0-1.05-.94,4.06,4.06,0,0,0-2.06-.47,12.76,12.76,0,0,0-3,.14,18.09,18.09,0,0,0-3.42.64l-2.28.73A17.46,17.46,0,0,0,207,378.8l-1.2,1a2,2,0,0,0-.79,1.81Z"/></svg>